# xmcd
#
# Track frame offsets:
#	183
#	17780
#	36550
#	55723
#	86303
#	104335
#	126398
#	156353
#	178855
#	210803
#	233155
#	251593
#	271168
#	305735
#	331515
#
# Disc length: 4619 seconds
#
# Revision: 0
# Processed by: cddbd v1.5.2PL0 Copyright (c) Steve Scherf et al.
# Submitted via: dBpowerAMP V4.0
#
DISCID=c612090f
DTITLE=Gary Moore - Essential
DYEAR=1994
DGENRE=blues
TTITLE0=Always Gonna Love You
TTITLE1=Still Got The Blues (For You)
TTITLE2=Empty Rooms
TTITLE3=Parisienne Walkways (live)
TTITLE4=One Day
TTITLE5=Separate Ways
TTITLE6=Story Of The Blues
TTITLE7=Crying In The Shadows
TTITLE8=With Love (Remember)
TTITLE9=Midnight Blues
TTITLE10=Falling In Love With You
TTITLE11=Jumpin' At Shadows
TTITLE12=Blues For Narada
TTITLE13=Johnny Boy
TTITLE14=DATA
EXTD=
EXTT0=
EXTT1=
EXTT2=
EXTT3=
EXTT4=
EXTT5=
EXTT6=
EXTT7=
EXTT8=
EXTT9=
EXTT10=
EXTT11=
EXTT12=
EXTT13=
EXTT14=
PLAYORDER=
